<svg width="13" height="9" viewBox="0 0 13 9" fill="none" xmlns="http://www.w3.org/2000/svg">
<path d="M11.9424 5.01918H0.519233C0.232615 5.01918 0 4.78656 0 4.49995C0 4.21333 0.232615 3.98071 0.519233 3.98071H11.9424C12.229 3.98071 12.4616 4.21333 12.4616 4.49995C12.4616 4.78656 12.229 5.01918 11.9424 5.01918Z" fill="black"/>
<path d="M11.9424 1.03847H0.519233C0.232615 1.03847 0 0.805851 0 0.519233C0 0.232615 0.232615 0 0.519233 0H11.9424C12.229 0 12.4616 0.232615 12.4616 0.519233C12.4616 0.805851 12.229 1.03847 11.9424 1.03847Z" fill="black"/>
<path d="M11.9424 8.99989H0.519233C0.232615 8.99989 0 8.76728 0 8.48066C0 8.19404 0.232615 7.96143 0.519233 7.96143H11.9424C12.229 7.96143 12.4616 8.19404 12.4616 8.48066C12.4616 8.76728 12.229 8.99989 11.9424 8.99989Z" fill="black"/>
</svg>